<?xml version="1.0" standalone="no"?>
<!DOCTYPE svg PUBLIC "-//W3C//DTD SVG 20010904//EN"
 "http://www.w3.org/TR/2001/REC-SVG-20010904/DTD/svg10.dtd">
<svg version="1.0" xmlns="http://www.w3.org/2000/svg"
 width="700.000000pt" height="700.000000pt" viewBox="0 0 700.000000 700.000000"
 preserveAspectRatio="xMidYMid meet">
<metadata>
Created by potrace 1.11, written by Peter Selinger 2001-2013
</metadata>
<g transform="translate(0.000000,700.000000) scale(0.100000,-0.100000)"
fill="#000000" stroke="none">
<path d="M5700 6609 c-80 -21 -170 -45 -200 -53 -30 -8 -145 -38 -255 -66
-733 -190 -954 -247 -1160 -300 -88 -23 -167 -43 -175 -45 -8 -2 -49 -13 -90
-23 -162 -43 -436 -114 -450 -117 -8 -2 -94 -24 -190 -50 -96 -25 -183 -48
-192 -50 -17 -4 -668 -172 -888 -230 -69 -18 -312 -81 -540 -140 -228 -59
-417 -109 -419 -111 -3 -2 -5 -631 -2 -684 1 -11 30 -25 89 -44 48 -15 96 -31
107 -36 11 -5 104 -36 207 -70 l186 -61 219 56 c120 31 243 63 273 71 30 9 62
17 70 19 148 34 309 80 303 86 -4 4 -132 49 -283 99 -151 51 -276 93 -278 95
-2 2 90 28 143 40 11 3 238 61 505 130 843 219 941 245 1120 291 96 25 234 60
305 79 72 19 254 66 405 105 151 38 309 79 350 90 155 42 346 92 370 96 14 3
59 14 100 26 41 11 82 21 90 23 74 18 409 107 424 113 18 8 19 23 19 352 0
195 -4 345 -9 346 -5 1 -74 -16 -154 -37z"/>
<path d="M5680 5204 c-91 -24 -289 -76 -440 -114 -151 -39 -289 -75 -306 -81
-17 -5 -40 -11 -50 -14 -20 -4 -369 -93 -464 -119 -30 -8 -161 -42 -291 -75
-130 -34 -270 -70 -310 -80 -41 -11 -189 -49 -329 -85 -140 -36 -358 -93 -485
-126 -126 -33 -324 -85 -440 -115 -115 -29 -298 -77 -405 -105 -107 -28 -202
-52 -210 -54 -8 -2 -35 -9 -60 -16 -25 -7 -52 -13 -60 -15 -39 -8 -453 -117
-473 -124 -12 -5 -25 -9 -30 -9 -4 0 -48 -10 -97 -22 -78 -19 -90 -25 -91 -44
-3 -67 0 -678 2 -680 2 -2 135 -47 296 -100 l292 -97 178 46 c98 26 255 66
348 91 94 24 209 54 258 66 48 12 87 24 87 27 0 4 -128 48 -285 100 -157 52
-284 95 -283 97 2 1 127 34 278 73 151 39 309 80 350 91 115 31 615 161 905
235 143 36 316 81 385 100 114 30 665 172 700 181 14 3 147 38 865 224 154 40
292 75 308 78 15 2 30 9 34 15 4 7 8 583 4 680 -1 21 17 24 -181 -29z"/>
<path d="M4890 3950 c-143 -39 -497 -131 -520 -136 -14 -3 -63 -16 -110 -29
-47 -13 -100 -26 -117 -30 -18 -4 -33 -10 -33 -13 0 -4 126 -49 280 -100 154
-52 280 -95 280 -97 0 -4 -66 -23 -103 -31 -10 -2 -27 -6 -37 -9 -10 -3 -28
-8 -39 -10 -12 -3 -29 -7 -38 -9 -35 -8 -209 -54 -263 -70 -30 -8 -66 -18 -80
-20 -14 -3 -122 -31 -240 -62 -344 -90 -593 -154 -620 -160 -14 -3 -63 -16
-110 -29 -47 -13 -150 -40 -230 -60 -80 -20 -203 -52 -275 -71 -71 -19 -139
-37 -150 -39 -11 -3 -81 -21 -155 -40 -74 -20 -142 -37 -150 -39 -8 -2 -103
-27 -210 -54 -107 -28 -258 -67 -335 -87 -77 -19 -155 -40 -173 -46 -18 -6
-43 -12 -55 -14 -12 -2 -77 -18 -144 -36 -118 -30 -123 -33 -124 -58 -2 -106
0 -673 2 -675 8 -7 4714 -1573 4718 -1570 3 3 5 473 2 510 -1 6 -863 298
-1916 649 -1053 351 -1914 640 -1912 641 2 2 183 51 217 59 8 1 94 23 190 48
96 25 308 80 470 122 162 42 417 108 565 146 342 89 411 107 675 175 118 30
238 61 265 69 28 8 129 34 225 59 96 25 238 61 315 81 681 177 825 214 858
220 20 4 40 12 43 17 7 11 10 516 3 522 -8 9 -879 296 -891 295 -7 -1 -42 -10
-78 -19z"/>
<path d="M4925 2559 c-16 -5 -142 -38 -280 -74 -137 -35 -293 -76 -345 -90
-52 -14 -116 -30 -142 -36 -27 -6 -48 -14 -48 -18 0 -4 100 -40 223 -80 122
-40 229 -75 237 -78 115 -42 1286 -429 1289 -427 5 5 5 513 0 518 -8 8 -878
296 -891 295 -7 0 -26 -5 -43 -10z"/>
</g>
</svg>
